<?xml version="1.0" encoding="UTF-8"?>
<!DOCTYPE svg PUBLIC "-//W3C//DTD SVG 1.1//EN" "http://www.w3.org/Graphics/SVG/1.1/DTD/svg11.dtd">
<!-- Creator: CorelDRAW 2019 (64-Bit) -->
<svg xmlns="http://www.w3.org/2000/svg" xml:space="preserve" width="7.11026in" height="5.90876in" version="1.1" style="shape-rendering:geometricPrecision; text-rendering:geometricPrecision; image-rendering:optimizeQuality; fill-rule:evenodd; clip-rule:evenodd"
viewBox="0 0 803.89 668.05"
 xmlns:xlink="http://www.w3.org/1999/xlink">
 <defs>
  <style type="text/css">
   <![CDATA[
    .str0 {stroke:#0D6EFD;stroke-width:4.71;stroke-miterlimit:2.61313}
    .fil1 {fill:none}
    .fil0 {fill:#0D6EFD}
   ]]>
  </style>
 </defs>
 <g id="Layer_x0020_1">
  <metadata id="CorelCorpID_0Corel-Layer"/>
  <g id="_1968929683920">
   <path class="fil0" d="M653.19 310.81c-57.58,49.42 -148,81.27 -249.71,81.27 -106.23,0 -200.17,-34.74 -257.21,-87.96l30.11 -112.38 1.16 0 222.19 70.75 221.6 -70.57 31.86 118.89z"/>
   <rect class="fil0" transform="matrix(0.733228 -0.233488 0.807407 0.257109 0.000160385 127.289)" width="545.16" height="495.08"/>
   <line class="fil1 str0" x1="623.49" y1="160.14" x2="615.78" y2= "223.71" />
   <line class="fil1 str0" x1="173.56" y1="151.23" x2="181.26" y2= "214.8" />
   <g>
    <g>
     <g>
      <circle class="fil0" cx="143.57" cy="472.01" r="16.96"/>
      <circle class="fil0" cx="143.57" cy="509.66" r="16.96"/>
      <circle class="fil0" cx="143.57" cy="547.39" r="16.96"/>
      <circle class="fil0" cx="143.57" cy="585.12" r="16.96"/>
      <circle class="fil0" cx="143.57" cy="623.98" r="16.96"/>
     </g>
     <g>
      <circle class="fil0" cx="353.33" cy="472.01" r="16.96"/>
      <circle class="fil0" cx="353.33" cy="509.66" r="16.96"/>
      <circle class="fil0" cx="353.33" cy="547.39" r="16.96"/>
      <circle class="fil0" cx="353.33" cy="585.12" r="16.96"/>
      <circle class="fil0" cx="353.33" cy="623.98" r="16.96"/>
     </g>
     <g>
      <ellipse class="fil0" transform="matrix(3.58713E-14 -1.35443 1.10046 2.91451E-14 172.418 651.089)" rx="12.52" ry="15.41"/>
      <ellipse class="fil0" transform="matrix(3.58713E-14 -1.35443 1.10046 2.91451E-14 210.067 651.089)" rx="12.52" ry="15.41"/>
      <ellipse class="fil0" transform="matrix(3.58713E-14 -1.35443 1.10046 2.91451E-14 247.798 651.089)" rx="12.52" ry="15.41"/>
      <ellipse class="fil0" transform="matrix(3.58713E-14 -1.35443 1.10046 2.91451E-14 285.53 651.089)" rx="12.52" ry="15.41"/>
      <ellipse class="fil0" transform="matrix(3.58713E-14 -1.35443 1.10046 2.91451E-14 324.393 651.089)" rx="12.52" ry="15.41"/>
     </g>
     <g>
      <ellipse class="fil0" transform="matrix(3.58713E-14 -1.35443 1.10046 2.91451E-14 172.418 444.724)" rx="12.52" ry="15.41"/>
      <ellipse class="fil0" transform="matrix(3.58713E-14 -1.35443 1.10046 2.91451E-14 210.067 444.724)" rx="12.52" ry="15.41"/>
      <ellipse class="fil0" transform="matrix(3.58713E-14 -1.35443 1.10046 2.91451E-14 247.798 444.724)" rx="12.52" ry="15.41"/>
      <ellipse class="fil0" transform="matrix(3.58713E-14 -1.35443 1.10046 2.91451E-14 285.53 444.724)" rx="12.52" ry="15.41"/>
      <ellipse class="fil0" transform="matrix(3.58713E-14 -1.35443 1.10046 2.91451E-14 324.393 444.724)" rx="12.52" ry="15.41"/>
     </g>
    </g>
    <g>
     <g>
      <circle class="fil0" cx="446.13" cy="472.01" r="16.96"/>
      <circle class="fil0" cx="446.13" cy="509.66" r="16.96"/>
      <circle class="fil0" cx="446.13" cy="547.39" r="16.96"/>
      <circle class="fil0" cx="446.13" cy="585.12" r="16.96"/>
      <circle class="fil0" cx="446.13" cy="623.98" r="16.96"/>
     </g>
     <g>
      <circle class="fil0" cx="655.89" cy="472.01" r="16.96"/>
      <circle class="fil0" cx="655.89" cy="509.66" r="16.96"/>
      <circle class="fil0" cx="655.89" cy="547.39" r="16.96"/>
      <circle class="fil0" cx="655.89" cy="585.12" r="16.96"/>
      <circle class="fil0" cx="655.89" cy="623.98" r="16.96"/>
     </g>
     <g>
      <ellipse class="fil0" transform="matrix(3.58713E-14 -1.35443 1.10046 2.91451E-14 474.98 651.089)" rx="12.52" ry="15.41"/>
      <ellipse class="fil0" transform="matrix(3.58713E-14 -1.35443 1.10046 2.91451E-14 512.629 651.089)" rx="12.52" ry="15.41"/>
      <ellipse class="fil0" transform="matrix(3.58713E-14 -1.35443 1.10046 2.91451E-14 550.361 651.089)" rx="12.52" ry="15.41"/>
      <ellipse class="fil0" transform="matrix(3.58713E-14 -1.35443 1.10046 2.91451E-14 588.093 651.089)" rx="12.52" ry="15.41"/>
      <ellipse class="fil0" transform="matrix(3.58713E-14 -1.35443 1.10046 2.91451E-14 626.956 651.089)" rx="12.52" ry="15.41"/>
     </g>
     <g>
      <ellipse class="fil0" transform="matrix(3.58713E-14 -1.35443 1.10046 2.91451E-14 474.98 444.724)" rx="12.52" ry="15.41"/>
      <ellipse class="fil0" transform="matrix(3.58713E-14 -1.35443 1.10046 2.91451E-14 512.629 444.724)" rx="12.52" ry="15.41"/>
      <ellipse class="fil0" transform="matrix(3.58713E-14 -1.35443 1.10046 2.91451E-14 550.361 444.724)" rx="12.52" ry="15.41"/>
      <ellipse class="fil0" transform="matrix(3.58713E-14 -1.35443 1.10046 2.91451E-14 588.093 444.724)" rx="12.52" ry="15.41"/>
      <ellipse class="fil0" transform="matrix(3.58713E-14 -1.35443 1.10046 2.91451E-14 626.956 444.724)" rx="12.52" ry="15.41"/>
     </g>
    </g>
   </g>
   <g>
    <g>
     <circle class="fil0" cx="786.93" cy="188.58" r="16.96"/>
     <circle class="fil0" cx="786.93" cy="226.23" r="16.96"/>
     <circle class="fil0" cx="786.93" cy="263.96" r="16.96"/>
     <circle class="fil0" cx="786.93" cy="301.69" r="16.96"/>
     <circle class="fil0" cx="786.93" cy="340.55" r="16.96"/>
     <circle class="fil0" cx="786.93" cy="381.68" r="16.96"/>
     <circle class="fil0" cx="786.93" cy="421.67" r="16.96"/>
     <circle class="fil0" cx="786.93" cy="460.53" r="16.96"/>
     <circle class="fil0" cx="786.93" cy="499.39" r="16.96"/>
     <circle class="fil0" cx="786.93" cy="538.26" r="16.96"/>
     <circle class="fil0" cx="786.93" cy="574.86" r="16.96"/>
     <circle class="fil0" cx="786.93" cy="613.3" r="16.96"/>
     <circle class="fil0" cx="786.93" cy="651.08" r="16.96"/>
    </g>
    <line class="fil1 str0" x1="786.93" y1="123.67" x2="786.93" y2= "204.58" />
   </g>
  </g>
 </g>
</svg>
